<svg xmlns="http://www.w3.org/2000/svg" viewBox="0 0 32 32" fill="none">
  <defs>
    <linearGradient id="g" x1="0%" y1="0%" x2="100%" y2="100%">
      <stop offset="0%" stop-color="#8d1ff4"/>
      <stop offset="100%" stop-color="#a855f7"/>
    </linearGradient>
  </defs>
  <!-- Hexagon -->
  <polygon points="16,2 28,9 28,23 16,30 4,23 4,9" fill="url(#g)"/>
  <!-- Inner cube / D mark -->
  <polygon points="16,9 22,12.5 22,19.5 16,23 10,19.5 10,12.5" fill="white" fill-opacity="0.15"/>
  <line x1="16" y1="9" x2="16" y2="23" stroke="white" stroke-width="1.2" stroke-opacity="0.6"/>
  <line x1="16" y1="16" x2="22" y2="12.5" stroke="white" stroke-width="1.2" stroke-opacity="0.6"/>
  <line x1="16" y1="16" x2="10" y2="12.5" stroke="white" stroke-width="1.2" stroke-opacity="0.6"/>
  <!-- Top face -->
  <polygon points="16,9 22,12.5 16,16 10,12.5" fill="white" fill-opacity="0.9"/>
  <!-- Left face -->
  <polygon points="10,12.5 16,16 16,23 10,19.5" fill="white" fill-opacity="0.5"/>
  <!-- Right face -->
  <polygon points="22,12.5 22,19.5 16,23 16,16" fill="white" fill-opacity="0.7"/>
</svg>
